<?xml version="1.0" standalone="no"?>
<!DOCTYPE svg PUBLIC "-//W3C//DTD SVG 20010904//EN"
 "http://www.w3.org/TR/2001/REC-SVG-20010904/DTD/svg10.dtd">
<svg version="1.0" xmlns="http://www.w3.org/2000/svg"
 width="612.000000pt" height="612.000000pt" viewBox="0 0 612.000000 612.000000"
 preserveAspectRatio="xMidYMid meet">

<g transform="translate(0.000000,612.000000) scale(0.100000,-0.100000)"
fill="#000000" stroke="none">
<path d="M1401 5233 c-39 -39 -55 -99 -54 -203 3 -329 333 -951 935 -1761 135
-181 164 -199 313 -196 71 1 86 -2 132 -27 29 -16 59 -36 66 -45 8 -9 81 -122
162 -251 147 -234 167 -266 284 -455 83 -132 534 -889 648 -1085 50 -85 113
-193 139 -239 62 -106 78 -117 148 -103 94 19 185 69 256 141 36 36 74 85 84
109 19 42 19 45 2 75 -9 18 -51 70 -93 117 -115 129 -393 463 -557 670 -80
102 -159 201 -175 220 -63 78 -364 483 -446 600 -48 69 -192 283 -320 475
-128 193 -260 390 -294 438 -411 591 -804 1133 -1006 1387 -108 135 -121 148
-163 156 -26 5 -36 1 -61 -23z"/>
<path d="M4194 5252 c-6 -4 -33 -38 -61 -77 -27 -38 -162 -225 -298 -415 -468
-649 -496 -689 -497 -707 -1 -10 13 -56 31 -103 31 -80 33 -91 29 -180 -6
-123 -21 -154 -153 -330 l-105 -140 57 -85 c32 -46 60 -85 63 -85 3 0 18 21
34 48 109 174 201 307 238 342 82 78 201 117 323 107 53 -5 76 -3 92 8 11 8
77 99 147 202 70 103 206 303 301 443 349 512 385 568 379 584 -3 9 -16 16
-28 16 -17 0 -53 -42 -156 -186 -523 -721 -515 -710 -561 -668 -33 30 -23 62
63 188 463 686 511 759 501 775 -6 9 -18 16 -28 16 -13 0 -113 -131 -314 -407
-163 -224 -306 -418 -319 -432 -40 -47 -102 -28 -102 32 0 10 26 57 58 103
231 334 532 794 530 808 -2 9 -13 16 -28 16 -25 0 -5 27 -483 -629 -83 -115
-158 -215 -165 -223 -31 -30 -92 -2 -92 43 0 11 64 114 141 229 78 116 211
313 295 438 85 125 154 236 154 246 0 11 -7 22 -16 25 -19 7 -17 7 -30 -2z"/>
<path d="M2675 2707 c-131 -170 -692 -868 -940 -1168 -275 -334 -285 -348
-285 -376 0 -39 31 -86 104 -158 65 -64 135 -103 237 -132 74 -20 94 -12 136
60 190 323 819 1370 920 1531 l30 48 -74 117 c-41 64 -77 119 -81 123 -4 3
-25 -17 -47 -45z"/>
</g>
</svg>
